<svg width="344" height="160" viewBox="0 0 344 160" fill="none" xmlns="http://www.w3.org/2000/svg">
<rect width="344" height="160" rx="7" fill="#3A83F1"/>
<path opacity="0.2" d="M39.0433 70.558C39.0433 75.6205 37.5065 79.9598 34.4329 83.5759C31.3593 87.192 27.7734 89 23.6753 89C19.1674 89 15.3766 87.3125 12.303 83.9375C9.43434 80.5625 8 76.2232 8 70.9196C8 57.6607 15.4791 36.6875 30.4372 8L42.1169 10.1696L29.5152 53.9241C35.8672 56.3348 39.0433 61.8795 39.0433 70.558ZM76.2338 70.558C76.2338 75.6205 74.697 79.9598 71.6234 83.5759C68.5498 87.192 64.8615 89 60.5584 89C56.2554 89 52.5671 87.3125 49.4935 83.9375C46.6248 80.5625 45.1905 76.2232 45.1905 70.9196C45.1905 57.6607 52.5671 36.6875 67.3203 8L79 10.1696L66.7056 53.9241C73.0577 56.3348 76.2338 61.8795 76.2338 70.558Z" fill="#EBF3FE"/>
<path opacity="0.2" d="M304.957 89.442C304.957 84.3795 306.494 80.0402 309.567 76.4241C312.641 72.808 316.227 71 320.325 71C324.833 71 328.623 72.6875 331.697 76.0625C334.566 79.4375 336 83.7768 336 89.0804C336 102.339 328.521 123.313 313.563 152L301.883 149.83L314.485 106.076C308.133 103.665 304.957 98.1205 304.957 89.442ZM267.766 89.442C267.766 84.3795 269.303 80.0402 272.377 76.4241C275.45 72.808 279.139 71 283.442 71C287.745 71 291.433 72.6875 294.507 76.0625C297.375 79.4375 298.81 83.7768 298.81 89.0804C298.81 102.339 291.433 123.312 276.68 152L265 149.83L277.294 106.076C270.942 103.665 267.766 98.1205 267.766 89.442Z" fill="#EBF3FE"/>
</svg>